<svg height="104.272" viewBox="0 0 405.172 104.272" width="405.172"
    xmlns="http://www.w3.org/2000/svg">
    <g id="layered-waves-haikei" transform="translate(403.586 601) rotate(180)">
        <path d="M0,498l11.167,1.3c11.167,1.4,33.5,4,55.833,2.5s44.667-7.1,67-4.3,44.667,14.2,67,14,44.667-11.8,67-11.8,44.667,11.6,67,17c22.333,5.3,44.667,4.3,55.833,3.8L402,520v81H0Z" data-name="Path 2193"
            fill="#022859"
            id="Path_2193" />
        <path d="M0,519l11.167,4.5C22.333,528,44.667,537,67,539.8c22.333,2.9,44.667-.5,67-2.5s44.667-2.6,67-2.5a653.99,653.99,0,0,1,67,3.7c22.333,2.5,44.667,6.5,67,7.7,22.333,1.1,44.667-.5,55.833-1.4L402,544v57H0Z" data-name="Path 2194"
            fill="#013575"
            id="Path_2194" />
        <path d="M0,545l11.255.7c11.255.6,33.764,2,56.274,1.5s45.019-2.9,67.529-3c22.51-.2,45.019,1.8,67.529,2,22.51.1,45.019-1.5,67.529-1.5s45.019,1.6,67.529,1.6,45.019-1.6,56.274-2.5l11.255-.8v58H0Z" data-name="Path 2195"
            fill="#044293"
            id="Path_2195" transform="translate(-1.586)" />
    </g>
</svg>
