<svg height="229.673" viewBox="0 0 176 229.673" width="176" xmlns="http://www.w3.org/2000/svg">
    <g id="OBJECTS" transform="translate(0)">
        <path d="M145.6,57.079V148.3a12.62,12.62,0,0,1-12.645,12.5H97.318a8.772,8.772,0,0,1-8.772-8.747v-60.2h15.369a8.772,8.772,0,0,0,8.772-8.747v-1.25a8.772,8.772,0,0,0-8.772-8.772H88.547V55.8A8.747,8.747,0,0,0,79.8,47.058H76.551A8.772,8.772,0,0,0,67.779,55.8V73.073H52.36a8.772,8.772,0,0,0-8.772,8.772v1.25a8.772,8.772,0,0,0,8.772,8.747H67.779v60.328a8.772,8.772,0,0,1-8.847,8.747H23.345A12.646,12.646,0,0,1,10.7,148.42V57.079a12.67,12.67,0,0,1,5.2-10.2L70.7,2.5A12.5,12.5,0,0,1,85.7,2.5l54.755,44.384a12.5,12.5,0,0,1,5.148,10.2Z" data-name="Path 2"
            fill="#fff"
            id="Path_2" transform="translate(10.3 0)" />
        <text data-name="ALTAR BOY" fill="#fff" font-family="ProximaNova-Extrabld, Proxima Nova" font-size="34"
            id="ALTAR_BOY" transform="translate(1 208.035)">
            <tspan x="0" y="0">A</tspan>
            <tspan letter-spacing="-0.1em" y="0">L</tspan>
            <tspan letter-spacing="-0.06em" y="0">T</tspan>
            <tspan y="0">AR B</tspan>
            <tspan letter-spacing="-0.04em" y="0">O</tspan>
            <tspan y="0">Y</tspan>
        </text>
        <text data-name="YOUR CHURCH ASSISTANT" fill="#fff"
            font-family="Poppins-Medium, Poppins" font-size="9" font-weight="500"
            id="YOUR_CHURCH_ASSISTANT" letter-spacing="0.31em" transform="translate(3 226.673)">
            <tspan x="0" y="0">YOUR CHURCH ASSISTANT</tspan>
        </text>
    </g>
</svg>
